<?xml version="1.0" encoding="utf-8"?>
<!-- Generator: Adobe Illustrator 16.0.0, SVG Export Plug-In . SVG Version: 6.00 Build 0)  -->
<!DOCTYPE svg PUBLIC "-//W3C//DTD SVG 1.1//EN" "http://www.w3.org/Graphics/SVG/1.1/DTD/svg11.dtd">
<svg version="1.1" id="Layer_1" xmlns="http://www.w3.org/2000/svg" xmlns:xlink="http://www.w3.org/1999/xlink" x="0px" y="0px"
	 width="400px" height="400px" viewBox="-100 -100 400 400" enable-background="new -100 -100 400 400" xml:space="preserve">
<g>
	<path fill="#565656" d="M299.957-21.125c0-13.664-11.047-24.715-24.715-24.715H-75.285C-88.949-45.84-100-34.793-100-21.125v242.25
		c0,13.67,11.047,24.715,24.715,24.715h351.344c13.668,0,24.715-11.047,23.898-25.617V-21.125L299.957-21.125z M283.754,62.516
		H-82.895V37.801h366.648V62.516z M-83.793-20.223c0-5.156,4.254-8.514,8.508-8.514v-0.818h350.527c5.156,0,8.512,4.258,8.512,8.512
		v42.639H-83.793V-20.223z M283.754,221.125c0,5.154-4.258,8.512-8.512,8.512H-75.285c-5.156,0-8.508-4.258-8.508-8.512V79.539
		h367.547V221.125L283.754,221.125z"/>
</g>
</svg>
