<?xml version="1.0" encoding="utf-8"?>
<!-- Generator: Adobe Illustrator 16.0.0, SVG Export Plug-In . SVG Version: 6.00 Build 0)  -->
<!DOCTYPE svg PUBLIC "-//W3C//DTD SVG 1.1//EN" "http://www.w3.org/Graphics/SVG/1.1/DTD/svg11.dtd">
<svg version="1.1" id="Layer_1" xmlns="http://www.w3.org/2000/svg" xmlns:xlink="http://www.w3.org/1999/xlink" x="0px" y="0px"
	 width="512px" height="512px" viewBox="0 0 512 512" enable-background="new 0 0 512 512" xml:space="preserve">
<g>
	<g>
		<path fill="#1D6986" d="M362.766,132.961H149.234c-9.128,0-16.272,7.144-16.272,16.273c0,9.128,7.144,16.272,16.272,16.272
			h213.929c9.128,0,16.272-7.144,16.272-16.272C379.039,140.105,371.895,132.961,362.766,132.961z"/>
		<path fill="#1D6986" d="M362.766,346.891H149.234c-9.128,0-16.272,7.144-16.272,16.271c0,9.129,7.144,16.273,16.272,16.273
			h213.929c9.128,0,16.272-7.145,16.272-16.273C379.039,354.034,371.895,346.891,362.766,346.891z"/>
		<path fill="#1D6986" d="M362.766,239.727H149.234c-9.128,0-16.272,7.144-16.272,16.273s7.144,16.273,16.272,16.273h213.929
			c9.128,0,16.272-7.145,16.272-16.273C379.039,246.871,371.895,239.727,362.766,239.727z"/>
	</g>
</g>
</svg>
