<?xml version="1.0" encoding="utf-8"?>
<!-- Generator: Adobe Illustrator 16.0.0, SVG Export Plug-In . SVG Version: 6.00 Build 0)  -->
<!DOCTYPE svg PUBLIC "-//W3C//DTD SVG 1.1//EN" "http://www.w3.org/Graphics/SVG/1.1/DTD/svg11.dtd">
<svg version="1.1" id="Layer_1" xmlns="http://www.w3.org/2000/svg" xmlns:xlink="http://www.w3.org/1999/xlink" x="0px" y="0px"
	 width="512px" height="512px" viewBox="0 0 512 512" enable-background="new 0 0 512 512" xml:space="preserve">
<g>
	<g>
		<path fill="#D7D7D7" d="M457.698,143.01c4.144,0,7.5-3.357,7.5-7.5V53.642c0-12.859-10.462-23.32-23.318-23.32h-98.294v-7
			c0-12.86-10.462-23.321-23.32-23.321h-18.814c-4.143,0-7.5,3.357-7.5,7.5c0,4.144,3.357,7.5,7.5,7.5h18.814
			c4.587,0,8.319,3.732,8.319,8.32c0,10.285,0,19.107,0,29.659c0,4.588-3.733,8.319-8.319,8.319H191.734
			c-4.588,0-8.319-3.731-8.319-8.319c0-10.551,0-19.372,0-29.659c0-4.587,3.731-8.32,8.319-8.32h80.218c4.143,0,7.5-3.356,7.5-7.5
			c0-4.143-3.357-7.5-7.5-7.5h-80.218c-12.858,0-23.32,10.462-23.32,23.32v7H70.12c-12.859,0-23.32,10.462-23.32,23.32v435.037
			c0,12.858,10.462,23.319,23.32,23.319h371.76c12.857,0,23.318-10.462,23.318-23.319V163.008c0-4.142-3.356-7.5-7.5-7.5
			c-4.143,0-7.5,3.358-7.5,7.5v325.671c0,4.587-3.73,8.319-8.318,8.319H70.12c-4.587,0-8.32-3.731-8.32-8.319V53.642
			c0-4.587,3.733-8.32,8.32-8.32h98.293v7.657c0,12.856,10.46,23.32,23.32,23.32h128.531c12.858,0,23.32-10.461,23.32-23.32v-7.657
			h98.294c4.587,0,8.318,3.732,8.318,8.32v81.866C450.198,139.652,453.557,143.01,457.698,143.01z"/>
	</g>
</g>
<g>
	<g>
		<path fill="#D7D7D7" d="M184.671,130.417c-2.938-2.921-7.687-2.909-10.608,0.027l-34.904,35.086l-15.78-14.833
			c-3.02-2.838-7.767-2.69-10.604,0.328s-2.689,7.765,0.328,10.603l21.093,19.826c2.958,2.78,7.591,2.702,10.455-0.175
			l40.048-40.254C187.619,138.088,187.607,133.339,184.671,130.417z"/>
	</g>
</g>
<g>
	<g>
		<path fill="#D7D7D7" d="M184.67,213.237c-2.937-2.92-7.686-2.909-10.607,0.028l-34.904,35.086l-15.78-14.833
			c-3.02-2.838-7.767-2.69-10.604,0.328c-2.837,3.018-2.689,7.765,0.328,10.602c22.588,21.231,22.271,21.861,26.23,21.861
			c4.202,0,2.143,0.98,45.366-42.467C187.619,220.908,187.606,216.158,184.67,213.237z"/>
	</g>
</g>
<g>
	<g>
		<path fill="#D7D7D7" d="M184.67,296.057c-2.937-2.921-7.686-2.91-10.608,0.027l-34.904,35.087l-15.78-14.832
			c-3.02-2.838-7.767-2.69-10.604,0.328c-2.837,3.018-2.688,7.766,0.328,10.603l21.093,19.825c2.958,2.78,7.592,2.703,10.455-0.176
			l40.047-40.254C187.619,303.727,187.606,298.978,184.67,296.057z"/>
	</g>
</g>
<g>
	<g>
		<path fill="#D7D7D7" d="M184.671,378.88c-2.938-2.923-7.687-2.909-10.607,0.025l-34.905,35.086l-15.78-14.833
			c-3.018-2.837-7.767-2.689-10.604,0.328c-2.838,3.018-2.69,7.766,0.327,10.604l21.092,19.825
			c2.959,2.781,7.593,2.702,10.454-0.175l40.049-40.254C187.619,386.549,187.607,381.8,184.671,378.88z"/>
	</g>
</g>
<g>
	<g>
		<path fill="#D7D7D7" d="M396.194,131.979H227.443c-4.143,0-7.5,3.356-7.5,7.5c0,4.143,3.357,7.5,7.5,7.5h168.75
			c4.143,0,7.5-3.357,7.5-7.5C403.695,135.336,400.337,131.979,396.194,131.979z"/>
	</g>
</g>
<g>
	<g>
		<path fill="#D7D7D7" d="M396.194,212.788H227.443c-4.143,0-7.5,3.357-7.5,7.5c0,4.144,3.357,7.5,7.5,7.5h168.75
			c4.143,0,7.5-3.356,7.5-7.5C403.695,216.146,400.337,212.788,396.194,212.788z"/>
	</g>
</g>
<g>
	<g>
		<path fill="#D7D7D7" d="M396.194,293.6H227.443c-4.143,0-7.5,3.356-7.5,7.5c0,4.143,3.357,7.5,7.5,7.5h168.75
			c4.143,0,7.5-3.357,7.5-7.5C403.695,296.958,400.337,293.6,396.194,293.6z"/>
	</g>
</g>
<g>
	<g>
		<path fill="#D7D7D7" d="M396.194,374.41H227.443c-4.143,0-7.5,3.358-7.5,7.5c0,4.144,3.357,7.5,7.5,7.5h168.75
			c4.144,0,7.501-3.357,7.501-7.5C403.695,377.768,400.337,374.41,396.194,374.41z"/>
	</g>
</g>
<g>
	<g>
		<path fill="#D7D7D7" d="M312.698,166.256h-85.255c-4.143,0-7.5,3.357-7.5,7.5c0,4.144,3.358,7.5,7.5,7.5h85.255
			c4.144,0,7.5-3.356,7.5-7.5C320.198,169.613,316.842,166.256,312.698,166.256z"/>
	</g>
</g>
<g>
	<g>
		<path fill="#D7D7D7" d="M312.698,247.066h-85.255c-4.143,0-7.5,3.356-7.5,7.5c0,4.143,3.358,7.5,7.5,7.5h85.255
			c4.144,0,7.5-3.357,7.5-7.5C320.198,250.423,316.842,247.066,312.698,247.066z"/>
	</g>
</g>
<g>
	<g>
		<path fill="#D7D7D7" d="M312.698,327.878h-85.255c-4.143,0-7.5,3.357-7.5,7.5s3.358,7.5,7.5,7.5h85.255c4.144,0,7.5-3.357,7.5-7.5
			C320.199,331.235,316.842,327.878,312.698,327.878z"/>
	</g>
</g>
<g>
	<g>
		<path fill="#D7D7D7" d="M312.698,408.687h-85.255c-4.143,0-7.5,3.357-7.5,7.5s3.357,7.5,7.5,7.5h85.255c4.144,0,7.5-3.357,7.5-7.5
			S316.842,408.687,312.698,408.687z"/>
	</g>
</g>
</svg>
