<?xml version="1.0" encoding="utf-8"?>
<!-- Generator: Adobe Illustrator 16.0.0, SVG Export Plug-In . SVG Version: 6.00 Build 0)  -->
<!DOCTYPE svg PUBLIC "-//W3C//DTD SVG 1.1//EN" "http://www.w3.org/Graphics/SVG/1.1/DTD/svg11.dtd">
<svg version="1.1" id="Layer_1" xmlns="http://www.w3.org/2000/svg" xmlns:xlink="http://www.w3.org/1999/xlink" x="0px" y="0px"
	 width="512px" height="512px" viewBox="0 0 512 512" enable-background="new 0 0 512 512" xml:space="preserve">
<g>
	<g>
		<path fill="#43ABD2" d="M457.698,143.01c4.145,0,7.5-3.357,7.5-7.5V53.642c0-12.859-10.462-23.32-23.317-23.32h-98.294v-7
			c0-12.86-10.462-23.321-23.32-23.321h-18.812c-4.144,0-7.5,3.357-7.5,7.5c0,4.145,3.356,7.5,7.5,7.5h18.812
			c4.587,0,8.319,3.732,8.319,8.32c0,10.285,0,19.107,0,29.659c0,4.588-3.733,8.318-8.319,8.318H191.734
			c-4.588,0-8.318-3.73-8.318-8.318c0-10.551,0-19.372,0-29.659c0-4.587,3.73-8.32,8.318-8.32h80.219c4.143,0,7.5-3.355,7.5-7.5
			c0-4.143-3.357-7.5-7.5-7.5h-80.219c-12.857,0-23.319,10.462-23.319,23.32v7H70.12c-12.859,0-23.32,10.462-23.32,23.32v435.037
			c0,12.857,10.462,23.318,23.32,23.318h371.76c12.856,0,23.317-10.462,23.317-23.318v-325.67c0-4.142-3.355-7.5-7.5-7.5
			c-4.144,0-7.5,3.358-7.5,7.5V488.68c0,4.587-3.729,8.318-8.317,8.318H70.12c-4.587,0-8.32-3.73-8.32-8.318V53.642
			c0-4.587,3.733-8.32,8.32-8.32h98.293v7.657c0,12.855,10.46,23.319,23.319,23.319h128.531c12.858,0,23.32-10.461,23.32-23.319
			v-7.657h98.294c4.587,0,8.317,3.732,8.317,8.32v81.865C450.198,139.652,453.557,143.01,457.698,143.01z"/>
	</g>
</g>
<g>
	<g>
		<path fill="#43ABD2" d="M184.671,130.417c-2.938-2.921-7.688-2.909-10.608,0.027L139.16,165.53l-15.78-14.833
			c-3.021-2.838-7.768-2.69-10.604,0.328c-2.837,3.018-2.688,7.765,0.328,10.603l21.093,19.826c2.958,2.78,7.592,2.702,10.455-0.175
			l40.049-40.254C187.619,138.088,187.607,133.339,184.671,130.417z"/>
	</g>
</g>
<g>
	<g>
		<path fill="#43ABD2" d="M184.67,213.237c-2.938-2.92-7.687-2.909-10.607,0.028l-34.903,35.086l-15.78-14.833
			c-3.021-2.838-7.768-2.69-10.604,0.328c-2.837,3.018-2.688,7.765,0.328,10.602c22.588,21.231,22.271,21.86,26.23,21.86
			c4.202,0,2.143,0.979,45.366-42.467C187.619,220.908,187.606,216.158,184.67,213.237z"/>
	</g>
</g>
<g>
	<g>
		<path fill="#43ABD2" d="M184.67,296.057c-2.938-2.92-7.687-2.91-10.608,0.026l-34.903,35.088l-15.78-14.832
			c-3.021-2.838-7.768-2.69-10.604,0.328c-2.837,3.019-2.688,7.767,0.328,10.603l21.093,19.826
			c2.958,2.779,7.593,2.702,10.455-0.177l40.047-40.254C187.619,303.727,187.606,298.979,184.67,296.057z"/>
	</g>
</g>
<g>
	<g>
		<path fill="#43ABD2" d="M184.671,378.881c-2.938-2.924-7.688-2.908-10.607,0.023l-34.904,35.087l-15.78-14.833
			c-3.019-2.838-7.768-2.688-10.604,0.328c-2.838,3.019-2.689,7.767,0.327,10.604l21.092,19.824
			c2.959,2.781,7.594,2.702,10.454-0.175l40.049-40.255C187.619,386.55,187.607,381.801,184.671,378.881z"/>
	</g>
</g>
<g>
	<g>
		<path fill="#43ABD2" d="M396.194,131.979H227.443c-4.143,0-7.5,3.355-7.5,7.5c0,4.143,3.357,7.5,7.5,7.5h168.75
			c4.144,0,7.5-3.357,7.5-7.5C403.695,135.336,400.337,131.979,396.194,131.979z"/>
	</g>
</g>
<g>
	<g>
		<path fill="#43ABD2" d="M396.194,212.788H227.443c-4.143,0-7.5,3.357-7.5,7.5c0,4.145,3.357,7.5,7.5,7.5h168.75
			c4.144,0,7.5-3.355,7.5-7.5C403.695,216.146,400.337,212.788,396.194,212.788z"/>
	</g>
</g>
<g>
	<g>
		<path fill="#43ABD2" d="M396.194,293.6H227.443c-4.143,0-7.5,3.355-7.5,7.5c0,4.144,3.357,7.5,7.5,7.5h168.75
			c4.144,0,7.5-3.356,7.5-7.5C403.695,296.958,400.337,293.6,396.194,293.6z"/>
	</g>
</g>
<g>
	<g>
		<path fill="#43ABD2" d="M396.194,374.41H227.443c-4.143,0-7.5,3.357-7.5,7.5c0,4.145,3.357,7.5,7.5,7.5h168.75
			c4.145,0,7.501-3.355,7.501-7.5C403.695,377.768,400.337,374.41,396.194,374.41z"/>
	</g>
</g>
<g>
	<g>
		<path fill="#43ABD2" d="M312.698,166.256h-85.255c-4.143,0-7.5,3.357-7.5,7.5c0,4.145,3.358,7.5,7.5,7.5h85.255
			c4.145,0,7.5-3.355,7.5-7.5C320.198,169.613,316.842,166.256,312.698,166.256z"/>
	</g>
</g>
<g>
	<g>
		<path fill="#43ABD2" d="M312.698,247.066h-85.255c-4.143,0-7.5,3.355-7.5,7.5c0,4.143,3.358,7.5,7.5,7.5h85.255
			c4.145,0,7.5-3.357,7.5-7.5S316.842,247.066,312.698,247.066z"/>
	</g>
</g>
<g>
	<g>
		<path fill="#43ABD2" d="M312.698,327.879h-85.255c-4.143,0-7.5,3.355-7.5,7.5c0,4.143,3.358,7.5,7.5,7.5h85.255
			c4.145,0,7.5-3.357,7.5-7.5C320.199,331.234,316.842,327.879,312.698,327.879z"/>
	</g>
</g>
<g>
	<g>
		<path fill="#43ABD2" d="M312.698,408.688h-85.255c-4.143,0-7.5,3.356-7.5,7.5c0,4.143,3.357,7.5,7.5,7.5h85.255
			c4.145,0,7.5-3.357,7.5-7.5C320.198,412.044,316.842,408.688,312.698,408.688z"/>
	</g>
</g>
</svg>
