<?xml version="1.0" encoding="utf-8"?>
<!-- Generator: Adobe Illustrator 16.0.0, SVG Export Plug-In . SVG Version: 6.00 Build 0)  -->
<!DOCTYPE svg PUBLIC "-//W3C//DTD SVG 1.1//EN" "http://www.w3.org/Graphics/SVG/1.1/DTD/svg11.dtd">
<svg version="1.1" id="Layer_1" xmlns="http://www.w3.org/2000/svg" xmlns:xlink="http://www.w3.org/1999/xlink" x="0px" y="0px"
	 width="512px" height="512px" viewBox="0 0 512 512" enable-background="new 0 0 512 512" xml:space="preserve">
<g>
	<g>
		<path fill="#D7D7D7" d="M478.329,42.756H119.182c-18.565,0-33.67,15.105-33.67,33.671v103.147H33.67
			c-18.566,0-33.67,15.105-33.67,33.67v222.33c0,18.566,15.104,33.67,33.67,33.67h359.147c18.566,0,33.67-15.104,33.67-33.67
			V332.427h51.841c18.566,0,33.67-15.105,33.67-33.67V76.427C512,57.86,496.895,42.756,478.329,42.756z M410.455,435.574
			c0,9.726-7.912,17.638-17.638,17.638H33.67c-9.726,0-17.637-7.912-17.637-17.638v-222.33c0-9.725,7.911-17.637,17.637-17.637
			h359.147c9.726,0,17.638,7.912,17.638,17.637V435.574z M495.967,298.757c0,9.725-7.912,17.637-17.638,17.637h-51.841V213.244
			c0-18.565-15.104-33.67-33.67-33.67H101.545v-35.272h394.422V298.757L495.967,298.757z M495.967,128.267H101.545V92.994h394.422
			V128.267L495.967,128.267z M495.967,76.96H101.545v-0.533c0-9.726,7.912-17.638,17.637-17.638h359.147
			c9.726,0,17.638,7.912,17.638,17.638V76.96L495.967,76.96z"/>
	</g>
</g>
<g>
	<g>
		<path fill="#D7D7D7" d="M110.63,333.495H59.324c-4.428,0-8.018,3.589-8.018,8.018c0,4.428,3.589,8.017,8.018,8.017h51.307
			c4.427,0,8.017-3.589,8.017-8.017C118.648,337.084,115.058,333.495,110.63,333.495z"/>
	</g>
</g>
<g>
	<g>
		<path fill="#D7D7D7" d="M230.347,367.699h-17.102c-4.428,0-8.018,3.589-8.018,8.018c0,4.427,3.589,8.017,8.018,8.017h17.102
			c4.427,0,8.017-3.589,8.017-8.017C238.363,371.289,234.774,367.699,230.347,367.699z"/>
	</g>
</g>
<g>
	<g>
		<path fill="#D7D7D7" d="M281.653,367.699h-17.102c-4.427,0-8.017,3.589-8.017,8.018c0,4.427,3.589,8.017,8.017,8.017h17.102
			c4.428,0,8.018-3.589,8.018-8.017S286.081,367.699,281.653,367.699z"/>
	</g>
</g>
<g>
	<g>
		<path fill="#D7D7D7" d="M196.142,333.495h-51.307c-4.427,0-8.018,3.589-8.018,8.018c0,4.428,3.59,8.017,8.018,8.017h51.307
			c4.427,0,8.018-3.589,8.018-8.017C204.159,337.084,200.569,333.495,196.142,333.495z"/>
	</g>
</g>
<g>
	<g>
		<path fill="#D7D7D7" d="M281.653,333.495h-51.307c-4.427,0-8.017,3.589-8.017,8.018c0,4.428,3.589,8.017,8.017,8.017h51.307
			c4.428,0,8.018-3.589,8.018-8.017C289.67,337.084,286.081,333.495,281.653,333.495z"/>
	</g>
</g>
<g>
	<g>
		<path fill="#D7D7D7" d="M119.182,401.904H59.324c-4.428,0-8.018,3.589-8.018,8.018c0,4.427,3.589,8.017,8.018,8.017h59.857
			c4.427,0,8.018-3.589,8.018-8.017C127.198,405.493,123.609,401.904,119.182,401.904z"/>
	</g>
</g>
<g>
	<g>
		<path fill="#D7D7D7" d="M196.142,401.904h-42.756c-4.427,0-8.017,3.589-8.017,8.018c0,4.427,3.589,8.017,8.017,8.017h42.756
			c4.427,0,8.018-3.589,8.018-8.017C204.159,405.493,200.569,401.904,196.142,401.904z"/>
	</g>
</g>
<g>
	<g>
		<path fill="#D7D7D7" d="M367.165,333.495h-51.308c-4.427,0-8.017,3.589-8.017,8.018c0,4.428,3.589,8.017,8.017,8.017h51.308
			c4.427,0,8.017-3.589,8.017-8.017C375.182,337.084,371.592,333.495,367.165,333.495z"/>
	</g>
</g>
<g>
	<g>
		<path fill="#D7D7D7" d="M110.63,247.983H76.426c-13.851,0-25.119,11.268-25.119,25.119v17.102
			c0,13.852,11.269,25.119,25.119,25.119h34.205c13.851,0,25.119-11.268,25.119-25.119v-17.102
			C135.749,259.252,124.481,247.983,110.63,247.983z M119.716,290.205c0,5.01-4.076,9.086-9.086,9.086H76.426
			c-5.01,0-9.086-4.076-9.086-9.086v-17.102c0-5.011,4.076-9.086,9.086-9.086h34.205c5.01,0,9.086,4.075,9.086,9.086
			L119.716,290.205L119.716,290.205z"/>
	</g>
</g>
<g>
	<g>
		<path fill="#D7D7D7" d="M341.511,222.33c-7.798,0-15.102,2.134-21.378,5.834c-6.275-3.701-13.58-5.834-21.378-5.834
			c-23.281,0-42.221,18.941-42.221,42.221c0,23.28,18.94,42.222,42.221,42.222c7.798,0,15.102-2.134,21.378-5.834
			c6.276,3.701,13.58,5.834,21.378,5.834c23.281,0,42.221-18.941,42.221-42.222C383.732,241.271,364.792,222.33,341.511,222.33z
			 M307.328,289.291c-2.688,0.935-5.571,1.448-8.573,1.448c-14.44,0-26.188-11.748-26.188-26.188
			c0-14.439,11.748-26.188,26.188-26.188c3.003,0,5.885,0.514,8.573,1.448c-5.05,6.957-8.038,15.503-8.038,24.739
			C299.29,273.788,302.279,282.332,307.328,289.291z M320.134,279.649c-3.025-4.271-4.81-9.479-4.81-15.099
			c0-5.619,1.784-10.826,4.81-15.098c3.025,4.271,4.81,9.479,4.81,15.098C324.944,270.171,323.159,275.378,320.134,279.649z
			 M341.511,290.739c-3.003,0-5.885-0.514-8.573-1.448c5.049-6.957,8.038-15.503,8.038-24.739c0-9.237-2.989-17.781-8.038-24.74
			c2.688-0.935,5.571-1.448,8.573-1.448c14.44,0,26.188,11.748,26.188,26.188C367.699,278.991,355.951,290.739,341.511,290.739z"/>
	</g>
</g>
</svg>
