<?xml version="1.0" encoding="utf-8"?>
<!-- Generator: Adobe Illustrator 16.0.0, SVG Export Plug-In . SVG Version: 6.00 Build 0)  -->
<!DOCTYPE svg PUBLIC "-//W3C//DTD SVG 1.1//EN" "http://www.w3.org/Graphics/SVG/1.1/DTD/svg11.dtd">
<svg version="1.1" id="Capa_1" xmlns="http://www.w3.org/2000/svg" xmlns:xlink="http://www.w3.org/1999/xlink" x="0px" y="0px"
	 width="512px" height="512px" viewBox="0 0 512 512" enable-background="new 0 0 512 512" xml:space="preserve">
<g>
	<g>
		<path fill="#43ABD2" d="M472.436,136.274H280.32l6.619-66.193c9.623-2.953,16.644-11.922,16.644-22.501
			c0-12.976-10.56-23.532-23.532-23.532h-48.097c-12.978,0-23.532,10.559-23.532,23.532c0,10.579,7.018,19.548,16.642,22.501
			l6.619,66.193H39.564C17.749,136.274,0,154.023,0,175.839v272.55c0,21.814,17.749,39.562,39.562,39.562h432.871
			c21.816,0,39.562-17.749,39.562-39.562v-272.55C512,154.023,494.251,136.274,472.436,136.274z M223.419,47.58
			c0-4.704,3.828-8.532,8.533-8.532h48.097c4.705,0,8.532,3.828,8.532,8.532c0,4.703-3.826,8.53-8.528,8.532
			c-0.018,0-0.035,0-0.053,0h-48.019c-0.007,0-0.015,0-0.021,0h-0.01C227.246,56.112,223.419,52.284,223.419,47.58z M271.76,71.113
			l-6.516,65.162h-18.489l-6.518-65.162H271.76z M472.436,472.951H39.564C26.02,472.952,15,461.932,15,448.387V175.839
			c0-13.545,11.02-24.562,24.562-24.562h432.871c13.546,0,24.562,11.02,24.562,24.562v272.55H497
			C497,461.932,485.98,472.951,472.436,472.951z"/>
	</g>
</g>
<g>
	<g>
		<path fill="#43ABD2" d="M272.032,168.339h-32.064c-4.142,0-7.5,3.358-7.5,7.5c0,4.144,3.358,7.5,7.5,7.5h32.064
			c4.142,0,7.5-3.356,7.5-7.5C279.532,171.697,276.174,168.339,272.032,168.339z"/>
	</g>
</g>
<g>
	<g>
		<path fill="#43ABD2" d="M456.403,216.436H328.145c-4.142,0-7.5,3.356-7.5,7.5c0,4.142,3.358,7.5,7.5,7.5h128.259
			c4.144,0,7.5-3.358,7.5-7.5S460.545,216.436,456.403,216.436z"/>
	</g>
</g>
<g>
	<g>
		<path fill="#43ABD2" d="M424.339,312.631h-96.194c-4.142,0-7.5,3.355-7.5,7.5c0,4.143,3.358,7.5,7.5,7.5h96.194
			c4.143,0,7.5-3.357,7.5-7.5C431.839,315.986,428.481,312.631,424.339,312.631z"/>
	</g>
</g>
<g>
	<g>
		<path fill="#43ABD2" d="M424.339,392.791h-96.194c-4.142,0-7.5,3.357-7.5,7.5c0,4.145,3.358,7.5,7.5,7.5h96.194
			c4.143,0,7.5-3.355,7.5-7.5C431.839,396.148,428.481,392.791,424.339,392.791z"/>
	</g>
</g>
<g>
	<g>
		<path fill="#43ABD2" d="M424.339,352.711h-96.194c-4.142,0-7.5,3.355-7.5,7.5c0,4.143,3.358,7.5,7.5,7.5h96.194
			c4.143,0,7.5-3.357,7.5-7.5C431.839,356.066,428.481,352.711,424.339,352.711z"/>
	</g>
</g>
<g>
	<g>
		<path fill="#43ABD2" d="M376.242,256.516h-48.1c-4.142,0-7.5,3.356-7.5,7.5c0,4.143,3.358,7.5,7.5,7.5h48.1
			c4.142,0,7.5-3.357,7.5-7.5C383.742,259.874,380.384,256.516,376.242,256.516z"/>
	</g>
</g>
<g>
	<g>
		<path fill="#43ABD2" d="M424.339,256.516h-16.032c-4.142,0-7.5,3.356-7.5,7.5c0,4.143,3.358,7.5,7.5,7.5h16.032
			c4.143,0,7.5-3.357,7.5-7.5C431.839,259.874,428.481,256.516,424.339,256.516z"/>
	</g>
</g>
<g>
	<g>
		<path fill="#43ABD2" d="M227.735,216.451c-3.583-2.076-8.173-0.853-10.249,2.732c-2.074,3.584-0.853,8.173,2.732,10.249
			c32.278,18.688,52.33,53.441,52.33,90.697c0,26.945-10.231,51.546-27.012,70.125L203.67,366.33
			c-2.651-1.516-4.299-4.354-4.299-7.406v-17.1c14.515-10.042,24.048-26.797,24.048-45.743v-16.032
			c0-19.564-10.168-36.79-25.489-46.7c0.946-3.035,1.44-6.216,1.44-9.411c0-17.396-14.152-31.548-31.55-31.548
			c-17.396,0-31.548,14.15-31.548,31.548c0,3.235,0.49,6.386,1.438,9.412c-15.32,9.909-25.487,27.134-25.487,46.698v16.032
			c0,18.947,9.534,35.702,24.049,45.744v17.1c0,3.055-1.646,5.893-4.299,7.406l-41.866,23.925
			c-16.778-18.578-27.013-43.18-27.013-70.125c0-37.274,20.068-72.039,52.373-90.724c3.585-2.074,4.811-6.662,2.737-10.248
			c-2.074-3.586-6.662-4.81-10.248-2.737c-36.924,21.357-59.862,61.097-59.862,103.709c0,66.017,53.709,119.726,119.726,119.726
			c66.019,0,119.728-53.709,119.728-119.726C287.548,277.541,264.629,237.814,227.735,216.451z M167.822,207.388
			c9.125,0,16.55,7.423,16.55,16.548c0,1.005-0.092,1.99-0.264,2.955c-5.151-1.582-10.621-2.439-16.286-2.439
			c-5.655,0-11.115,0.855-16.263,2.434c-0.173-0.968-0.285-1.946-0.285-2.948C151.274,214.811,158.697,207.388,167.822,207.388z
			 M167.823,239.452c22.387,0,40.599,18.211,40.599,40.597v2.721c-31.226,9.559-49.834-14.193-50.629-15.234
			c-1.307-1.739-3.3-2.827-5.47-2.979c-2.171-0.156-4.297,0.641-5.835,2.178c-7.157,7.158-14.171,10.609-19.233,12.277
			C127.807,257.104,145.786,239.452,167.823,239.452z M127.226,296.081v-1.554c5.981-1.375,14.851-4.567,24.102-12.008
			c3.271,3.088,7.949,6.875,13.906,10.125c7.046,3.844,16.777,7.398,28.663,7.398c4.519,0,9.352-0.525,14.459-1.73
			c-1.162,21.351-18.896,38.365-40.533,38.365C145.438,336.677,127.226,318.468,127.226,296.081z M139.417,379.354
			c7.312-4.179,11.855-12.008,11.855-20.432v-9.762c5.229,1.636,10.788,2.517,16.548,2.517c5.762,0,11.319-0.881,16.55-2.517v9.762
			c0,8.424,4.543,16.253,11.855,20.432l7.21,4.121c-10.812,6.111-22.944,9.314-35.615,9.314c-12.677,0-24.807-3.203-35.614-9.314
			L139.417,379.354z M167.822,424.856c-25.179,0-48.308-8.936-66.391-23.796l16.044-9.168c14.783,10.41,32.104,15.896,50.348,15.896
			c18.236,0,35.567-5.482,50.354-15.895l16.038,9.164C216.131,415.924,193.001,424.856,167.822,424.856z"/>
	</g>
</g>
</svg>
