<?xml version="1.0" encoding="utf-8"?>
<!-- Generator: Adobe Illustrator 16.0.0, SVG Export Plug-In . SVG Version: 6.00 Build 0)  -->
<!DOCTYPE svg PUBLIC "-//W3C//DTD SVG 1.1//EN" "http://www.w3.org/Graphics/SVG/1.1/DTD/svg11.dtd">
<svg version="1.1" id="Layer_1" xmlns="http://www.w3.org/2000/svg" xmlns:xlink="http://www.w3.org/1999/xlink" x="0px" y="0px"
	 width="512px" height="512px" viewBox="0 0 512 512" enable-background="new 0 0 512 512" xml:space="preserve">
<g>
	<g>
		<path fill="#1D6986" d="M430.545,93.091H384c-6.982,0-11.636,4.655-11.636,11.636s4.654,11.636,11.636,11.636h34.909v349.091
			c0,12.8-10.474,23.272-23.273,23.272H116.364c-12.8,0-23.273-10.473-23.273-23.272v-11.636c0-6.982-4.655-11.637-11.636-11.637
			s-11.636,4.655-11.636,11.637v11.636c0,25.6,20.945,46.545,46.545,46.545h279.273c25.601,0,46.545-20.945,46.545-46.545V104.727
			C442.182,97.745,437.527,93.091,430.545,93.091z"/>
	</g>
</g>
<g>
	<g>
		<path fill="#1D6986" d="M384,395.636H93.091V116.364h69.818V166.4c-6.982,3.491-11.636,11.636-11.636,19.782
			c0,12.8,10.473,23.273,23.273,23.273c12.8,0,23.273-10.473,23.273-23.273c0-8.145-4.655-16.291-11.636-19.782V93.091
			c0-38.4,31.418-69.818,69.818-69.818c38.399,0,69.818,31.418,69.818,69.818H221.091c-6.982,0-11.636,4.655-11.636,11.636
			s4.655,11.636,11.636,11.636h104.728V166.4c-6.982,3.491-11.637,11.636-11.637,19.782c0,12.8,10.474,23.273,23.273,23.273
			s23.273-10.473,23.273-23.273c0-8.145-4.655-16.291-11.637-19.782V93.091C349.091,41.891,307.2,0,256,0
			s-93.091,41.891-93.091,93.091H81.455c-6.982,0-11.636,4.655-11.636,11.636v302.544c0,6.982,4.655,11.637,11.636,11.637H384
			c6.982,0,11.636-4.655,11.636-11.637C395.636,400.291,390.982,395.636,384,395.636z"/>
	</g>
</g>
</svg>
