<?xml version="1.0" encoding="utf-8"?>
<!-- Generator: Adobe Illustrator 16.0.0, SVG Export Plug-In . SVG Version: 6.00 Build 0)  -->
<!DOCTYPE svg PUBLIC "-//W3C//DTD SVG 1.1//EN" "http://www.w3.org/Graphics/SVG/1.1/DTD/svg11.dtd">
<svg version="1.1" id="Layer_1" xmlns="http://www.w3.org/2000/svg" xmlns:xlink="http://www.w3.org/1999/xlink" x="0px" y="0px"
	 width="600px" height="179.99px" viewBox="0 0 600 179.99" enable-background="new 0 0 600 179.99" xml:space="preserve">
<path fill="#43ABD2" d="M87.731,93.347c-0.861,0.86-1.354,2.053-1.354,3.275c0,1.222,0.492,2.417,1.354,3.277
	c0.866,0.865,2.057,1.356,3.279,1.356c1.22,0,2.415-0.493,3.273-1.356c0.865-0.86,1.359-2.058,1.359-3.277
	c0-1.225-0.497-2.415-1.359-3.275c-0.864-0.867-2.056-1.359-3.273-1.359C89.786,91.985,88.597,92.483,87.731,93.347z"/>
<path fill="#43ABD2" d="M25.426,91.99c-1.221,0-2.414,0.493-3.277,1.356c-0.859,0.858-1.355,2.051-1.355,3.273
	c0,1.221,0.496,2.417,1.355,3.275c0.865,0.865,2.06,1.354,3.277,1.354c1.217,0,2.415-0.49,3.275-1.354
	c0.865-0.858,1.357-2.057,1.357-3.275s-0.492-2.415-1.357-3.273C27.841,92.483,26.647,91.99,25.426,91.99z"/>
<path fill="#43ABD2" d="M107.796,78.202c-3.188-6.201-7.575-11.809-12.82-16.426c3.851-5.889,7.118-13.383,9.373-21.582
	c2.786-10.137,3.2-18.463,1.226-24.75c-1.91-6.078-6.043-10.367-11.947-12.408c-4.756-1.641-9.445-1.363-13.555,0.803
	c-6.477,3.41-11.284,11.105-14.703,23.523c-1.936,7.035-3.002,14.201-3.112,20.713c-2.688-0.193-5.388-0.193-8.073,0
	c-0.111-6.51-1.177-13.678-3.115-20.713C47.649,14.944,42.84,7.249,36.365,3.839c-4.11-2.166-8.8-2.441-13.554-0.803
	c-5.908,2.041-10.039,6.33-11.948,12.408c-1.974,6.287-1.562,14.615,1.229,24.75c2.257,8.199,5.521,15.693,9.372,21.582
	c-5.248,4.617-9.637,10.225-12.824,16.426c-4.016,7.812-6.136,16.607-6.136,25.439c0,14.766,5.828,26.824,16.859,34.883
	c9.736,7.117,23.171,10.879,38.854,10.879c15.682,0,29.114-3.764,38.853-10.879c11.032-8.059,16.862-20.117,16.862-34.883
	C113.934,94.81,111.814,86.013,107.796,78.202z M91.602,131.043c-8.139,5.952-19.68,9.099-33.384,9.099
	c-13.702,0-25.245-3.146-33.387-9.099c-8.669-6.328-13.06-15.549-13.06-27.397c0-14.836,6.84-28.438,18.771-37.305
	c1.012-0.75,1.674-1.877,1.83-3.121c0.162-1.25-0.188-2.51-0.977-3.49c-4.248-5.314-7.932-13.123-10.374-21.99
	c-2.309-8.389-2.753-14.953-1.321-19.514c1.035-3.295,2.982-5.332,6.134-6.425c1.062-0.366,2.062-0.552,3.013-0.552
	c1.135,0,2.189,0.266,3.191,0.795c2.771,1.457,6.771,5.729,10.084,17.779c2.234,8.121,3.179,16.342,2.65,23.148
	c-0.111,1.426,0.446,2.822,1.506,3.783c1.059,0.965,2.501,1.385,3.912,1.141c5.276-0.918,10.768-0.918,16.045,0
	c1.41,0.244,2.854-0.172,3.912-1.141c1.055-0.961,1.614-2.357,1.5-3.783c-0.521-6.809,0.419-15.027,2.652-23.148
	c3.316-12.053,7.316-16.322,10.089-17.779c1.837-0.969,3.869-1.047,6.204-0.24c3.146,1.09,5.098,3.129,6.129,6.424
	c1.436,4.561,0.986,11.127-1.32,19.516c-2.438,8.865-6.123,16.678-10.375,21.99c-0.785,0.98-1.135,2.242-0.975,3.488
	c0.158,1.244,0.818,2.377,1.828,3.127c11.93,8.865,18.771,22.465,18.771,37.302C104.659,115.494,100.268,124.711,91.602,131.043z"/>
<path fill="#43ABD2" d="M63.936,98.274h-11.53c-2.559,0-4.634,2.076-4.634,4.636c0,2.562,2.075,4.635,4.634,4.635h1.128v1.129
	c0,2.562,2.076,4.636,4.638,4.636c2.56,0,4.635-2.074,4.635-4.636v-1.129h1.13c2.559,0,4.635-2.069,4.635-4.635
	C68.571,100.351,66.493,98.274,63.936,98.274z"/>
<path fill="#43ABD2" d="M83.136,150.51c-1.297-0.842-2.934-0.964-4.342-0.325l-20.035,9.029l-20.033-9.031
	c-1.409-0.636-3.046-0.516-4.345,0.325c-1.301,0.841-2.083,2.281-2.083,3.828v19.75c0,1.544,0.782,2.987,2.083,3.827
	c0.747,0.482,1.605,0.729,2.472,0.729c0.635,0,1.275-0.135,1.873-0.398l20.033-9.035l20.035,9.035
	c0.598,0.269,1.232,0.398,1.872,0.398c0.86,0,1.726-0.246,2.47-0.729c1.304-0.844,2.087-2.283,2.087-3.827v-19.75
	C85.224,152.791,84.441,151.349,83.136,150.51z M76.904,167.036l-8.354-2.822l8.354-2.822V167.036z M40.53,161.76l8.355,2.819
	l-8.355,2.822V161.76z"/>
<g>
	<path fill="#1D6986" d="M148.006,80.237c3.646,0,5.768,2.436,6.365,7.305v8.203h0.938c3.672-3.646,6.705-5.469,9.102-5.469h0.898
		c2.838,0,6.484,2.734,10.938,8.204h0.938V87.542c0-4.869,2.422-7.305,7.266-7.305c3.489,0,5.625,3.347,6.406,10.039v3.633
		c0,15.209-4.258,22.812-12.771,22.812h-0.898c-2.839,0-6.797-2.438-11.875-7.308c-4.297,5.471-8.242,8.203-11.836,8.203
		c-8.516-1.849-12.773-10.052-12.773-24.607v-5.47C140.987,82.673,143.422,80.237,148.006,80.237z"/>
	<path fill="#1D6986" d="M216.482,72.972c9.713,1.016,14.57,4.35,14.57,10l4.568,29.179v2.734c0,0.834-1.521,2.355-4.568,4.568
		h-0.898c-3.047,0-6.081-2.436-9.102-7.305c-3.256,2.447-5.99,3.672-8.203,3.672h-2.734c-8.725,0-14.506-6.992-17.344-20.978
		C192.771,84.639,200.675,77.347,216.482,72.972z M206.443,94.847c0.833,4.244,2.058,6.365,3.672,6.365h1.797
		c1.822-5.469,2.734-9.111,2.734-10.938V88.44C210.974,88.44,208.24,90.576,206.443,94.847z"/>
	<path fill="#1D6986" d="M243.045,60.198h1.836c4.242,0,6.365,2.123,6.365,6.367v13.672c0,1.016,5.169,2.24,15.51,3.672
		c7.891,4.948,11.836,11.628,11.836,20.039c0,8.334-7.293,14.714-21.875,19.141c-5.156-0.599-9.401-0.896-12.734-0.896h-1.836
		c-0.808,0-2.331-1.522-4.57-4.569V73.87C238.2,64.756,240.023,60.198,243.045,60.198z M251.247,99.378v7.307
		c0,0.887,0.911,1.797,2.734,2.732c7.291-1.611,10.938-4.049,10.938-7.305c-1.771-4.244-4.508-6.367-8.203-6.367h-1.797
		C253.955,95.745,252.732,96.956,251.247,99.378z"/>
	<path fill="#1D6986" d="M286.013,60.198h1.836c4.243,0,6.366,2.123,6.366,6.367v13.672c0,1.016,5.17,2.24,15.509,3.672
		c7.892,4.948,11.836,11.628,11.836,20.039c0,8.334-7.293,14.714-21.875,19.141c-5.156-0.599-9.4-0.896-12.733-0.896h-1.836
		c-0.808,0-2.331-1.522-4.569-4.569V73.87C281.169,64.756,282.991,60.198,286.013,60.198z M294.217,99.378v7.307
		c0,0.887,0.91,1.797,2.732,2.732c7.292-1.611,10.938-4.049,10.938-7.305c-1.771-4.244-4.507-6.367-8.204-6.367h-1.797
		C296.924,95.745,295.7,96.956,294.217,99.378z"/>
	<path fill="#1D6986" d="M330.819,81.177c3.801,0,5.924,2.422,6.366,7.266v15.508c-0.392,9.739-2.215,14.608-5.469,14.608h-3.634
		c-0.81,0-2.332-1.522-4.569-4.569V88.44C323.514,83.597,325.947,81.177,330.819,81.177z M330.819,61.097h1.836
		c3.308,0,5.729,1.521,7.267,4.568V68.4c0,4.245-2.123,6.367-6.366,6.367h-0.897c-4.271,0-6.405-2.122-6.405-6.367v-2.734
		C326.247,64.86,327.772,63.337,330.819,61.097z"/>
	<path fill="#1D6986" d="M365.583,57.464c3.646,1.435,5.47,3.557,5.47,6.367c-0.602,6.068-0.897,10.625-0.897,13.672
		c8.487,0,12.733,2.734,12.733,8.203c0,4.271-3.334,6.406-10,6.406h-3.672c0,7.891,1.224,11.836,3.672,11.836
		c6.064,0,9.103,2.123,9.103,6.367c0,5.494-3.944,8.242-11.836,8.242c-9.74-1.979-14.608-10.195-14.608-24.648v-0.896h-6.367
		c-3.31,0-5.74-1.522-7.306-4.57V83.91c0-2.63,4.559-4.453,13.673-5.469c0.729-13.984,3.774-20.979,9.143-20.979L365.583,57.464
		L365.583,57.464z"/>
	<path fill="#1D6986" d="M417.655,73.87c6.69,0,10.039,7.292,10.039,21.875v1.836c-2.031,15.186-6.89,22.773-14.57,22.773h-3.672
		c-2.422-0.989-3.633-3.111-3.633-6.367v-1.836c5.469-5.392,8.203-9.648,8.203-12.773h-0.898c-4.871,3.646-9.129,5.471-12.771,5.471
		c-10.341-3.021-15.51-9.399-15.51-19.143c0.832-6.065,3.566-9.102,8.203-9.102h0.938c2.838,0,4.659,4.258,5.469,12.771l1.797,0.898
		c3.203-2.291,7.16-7.461,11.875-15.508L417.655,73.87z"/>
</g>
<g>
	<path fill="#1D6986" d="M474.178,60.198h1.836c4.244,0,6.365,2.123,6.365,6.367v13.672c0,1.016,5.17,2.24,15.51,3.672
		c7.892,4.948,11.836,11.628,11.836,20.039c0,8.334-7.293,14.714-21.875,19.141c-5.155-0.599-9.401-0.896-12.733-0.896h-1.836
		c-0.81,0-2.332-1.522-4.57-4.569V73.87C469.332,64.756,471.156,60.198,474.178,60.198z M482.379,99.378v7.307
		c0,0.887,0.91,1.797,2.734,2.732c7.291-1.611,10.938-4.049,10.938-7.305c-1.771-4.244-4.507-6.367-8.202-6.367h-1.798
		C485.086,95.745,483.865,96.956,482.379,99.378z"/>
	<path fill="#1D6986" d="M535.389,72.972c13.982,3.438,20.978,9.506,20.978,18.202v4.569c0,10.938-7.904,18.229-23.711,21.875
		c-1.172,0.625-2.084,0.938-2.734,0.938c-12.162-2.422-18.24-8.502-18.24-18.242v-1.834
		C515.947,81.475,523.852,72.972,535.389,72.972z M525.35,99.378v1.836c0,0.889,0.91,1.799,2.732,2.734h3.672
		c4.035,0,7.684-2.436,10.938-7.305v-5.472c-0.393-1.82-2.826-2.732-7.306-2.732h-3.635C527.485,92.243,525.35,95.89,525.35,99.378z
		"/>
	<path fill="#1D6986" d="M581.99,66.565h1.836c7.135,0,11.69,5.469,13.672,16.406v0.938c-2.239,12.761-8.318,19.142-18.242,19.142
		h-5.469c-1.225,0.185-1.836,0.78-1.836,1.798c1.224,6.043,1.836,11.211,1.836,15.508c-2.553,2.449-4.987,3.672-7.305,3.672
		c-5.47,0-8.203-8.215-8.203-24.647C558.28,80.576,566.182,69.639,581.99,66.565z M574.686,88.44v0.938h2.732
		c4.271,0,6.406-2.135,6.406-6.404v-0.898c0-1.224-0.613-1.836-1.836-1.836h-0.896C576.821,82.19,574.686,84.926,574.686,88.44z"/>
</g>
</svg>
